<?xml version="1.0" standalone="no"?>
<!DOCTYPE svg PUBLIC "-//W3C//DTD SVG 20010904//EN"
 "http://www.w3.org/TR/2001/REC-SVG-20010904/DTD/svg10.dtd">
<svg version="1.0" xmlns="http://www.w3.org/2000/svg"
 width="768.000000pt" height="768.000000pt" viewBox="0 0 768.000000 768.000000"
 preserveAspectRatio="xMidYMid meet">
<metadata>
Created by potrace 1.14, written by Peter Selinger 2001-2017
</metadata>
<g transform="translate(0.000000,768.000000) scale(0.100000,-0.100000)"
fill="#000000" stroke="none">
<path d="M3697 7674 c-1 -1 -54 -4 -117 -8 -63 -3 -126 -8 -140 -10 -14 -3
-47 -7 -75 -10 -70 -9 -134 -19 -265 -43 -140 -25 -406 -98 -557 -153 -470
-172 -868 -409 -1258 -750 -141 -123 -408 -414 -510 -555 -239 -329 -349 -527
-506 -902 -5 -13 -13 -33 -19 -45 -36 -82 -138 -430 -155 -527 -3 -19 -8 -38
-10 -42 -3 -4 -7 -24 -10 -44 -2 -21 -7 -45 -9 -54 -3 -9 -8 -34 -11 -56 -3
-23 -7 -50 -9 -61 -2 -11 -7 -47 -11 -79 -4 -33 -8 -71 -10 -83 -33 -208 -21
-776 20 -982 2 -13 7 -42 10 -65 23 -160 105 -483 160 -630 15 -38 35 -93 45
-121 47 -133 168 -385 255 -534 247 -422 511 -732 905 -1064 76 -65 419 -306
434 -306 2 0 33 -18 68 -39 70 -42 267 -143 363 -186 193 -85 505 -192 648
-220 10 -2 26 -6 35 -9 9 -3 28 -7 42 -10 170 -32 246 -46 296 -51 32 -4 61
-9 64 -10 19 -11 228 -20 475 -20 313 0 385 5 615 42 52 8 109 17 125 19 17 3
84 19 150 35 66 17 127 32 136 34 60 12 361 116 423 146 22 10 44 19 48 19 12
0 341 159 348 168 3 4 16 13 30 19 55 27 147 83 260 159 492 332 908 780 1203
1294 34 60 141 272 171 340 48 109 53 122 89 220 71 190 162 525 182 670 3 25
8 52 10 60 2 8 7 41 10 73 4 32 8 68 11 80 26 138 26 757 0 904 -2 10 -7 45
-11 78 -4 32 -8 67 -10 76 -2 9 -6 33 -9 53 -9 55 -36 185 -48 231 -10 39 -13
52 -23 97 -9 44 -66 224 -75 240 -6 10 -10 24 -10 32 0 8 -11 41 -24 73 -13
32 -36 90 -51 128 -78 194 -211 446 -341 645 -61 94 -206 292 -250 340 -12 14
-53 61 -91 105 -66 76 -247 257 -323 324 -19 16 -51 44 -70 61 -68 60 -271
210 -382 283 -269 175 -551 313 -848 415 -112 38 -289 90 -340 98 -14 3 -32 7
-40 10 -8 3 -28 8 -45 11 -16 2 -43 8 -60 13 -35 10 -177 35 -187 32 -4 -1
-31 3 -60 8 -122 20 -282 32 -491 34 -92 1 -169 1 -170 0z"/>
</g>
</svg>
